<?xml version="1.0" encoding="UTF-8"?>
<svg width="200px" height="199px" viewBox="0 0 200 199" version="1.1" xmlns="http://www.w3.org/2000/svg" xmlns:xlink="http://www.w3.org/1999/xlink">
    <!-- Generator: Sketch 55.2 (78181) - https://sketchapp.com -->
    <title>logo1</title>
    <desc>Created with Sketch.</desc>
    <defs>
        <radialGradient cx="51.6290727%" cy="-123.056228%" fx="51.6290727%" fy="-123.056228%" r="455.3467%" gradientTransform="translate(0.516291,-1.230562),scale(1.000000,0.644068),translate(-0.516291,1.230562)" id="radialGradient-1">
            <stop stop-color="#FFFFFF" offset="0%"></stop>
            <stop stop-color="#B9428D" offset="50%"></stop>
            <stop stop-color="#58368C" offset="100%"></stop>
        </radialGradient>
        <radialGradient cx="79.564117%" cy="-68.7155641%" fx="79.564117%" fy="-68.7155641%" r="216.84381%" gradientTransform="translate(0.795641,-0.687156),scale(1.000000,0.859101),translate(-0.795641,0.687156)" id="radialGradient-2">
            <stop stop-color="#FFFFFF" offset="0%"></stop>
            <stop stop-color="#B9428D" offset="50%"></stop>
            <stop stop-color="#58368C" offset="100%"></stop>
        </radialGradient>
        <linearGradient x1="49.9888617%" y1="-149.552553%" x2="49.9888617%" y2="71.5739603%" id="linearGradient-3">
            <stop stop-color="#FFFFFF" offset="0%"></stop>
            <stop stop-color="#FFFFFF" stop-opacity="0" offset="100%"></stop>
        </linearGradient>
        <radialGradient cx="33.1142394%" cy="-94.248927%" fx="33.1142394%" fy="-94.248927%" r="243.261803%" gradientTransform="translate(0.331142,-0.942489),scale(0.964380,1.000000),translate(-0.331142,0.942489)" id="radialGradient-4">
            <stop stop-color="#FFFFFF" offset="0%"></stop>
            <stop stop-color="#E7B539" offset="50%"></stop>
            <stop stop-color="#AB2027" offset="100%"></stop>
        </radialGradient>
        <radialGradient cx="18.6442602%" cy="62.3748212%" fx="18.6442602%" fy="62.3748212%" r="75.5366732%" gradientTransform="translate(0.186443,0.623748),scale(1.000000,0.771968),translate(-0.186443,-0.623748)" id="radialGradient-5">
            <stop stop-color="#FFFFFF" offset="0%"></stop>
            <stop stop-color="#E7B539" offset="50%"></stop>
            <stop stop-color="#AB2027" offset="100%"></stop>
        </radialGradient>
        <radialGradient cx="49.9951972%" cy="50%" fx="49.9951972%" fy="50%" r="84.2077578%" gradientTransform="translate(0.499952,0.500000),scale(1.000000,0.802572),translate(-0.499952,-0.500000)" id="radialGradient-6">
            <stop stop-color="#FFFFFF" offset="0%"></stop>
            <stop stop-color="#FFFFFF" offset="33%"></stop>
            <stop stop-color="#FFFFFF" stop-opacity="0" offset="66%"></stop>
            <stop stop-color="#FFFFFF" stop-opacity="0" offset="100%"></stop>
        </radialGradient>
        <linearGradient x1="50.0716328%" y1="-144.852136%" x2="50.0716328%" y2="85.5421687%" id="linearGradient-7">
            <stop stop-color="#FFFFFF" offset="0%"></stop>
            <stop stop-color="#FFFFFF" stop-opacity="0" offset="100%"></stop>
        </linearGradient>
        <radialGradient cx="-70.7680725%" cy="45.162615%" fx="-70.7680725%" fy="45.162615%" r="211.794265%" gradientTransform="translate(-0.707681,0.451626),scale(1.000000,0.981113),translate(0.707681,-0.451626)" id="radialGradient-8">
            <stop stop-color="#FFFFFF" offset="0%"></stop>
            <stop stop-color="#E7B539" offset="50%"></stop>
            <stop stop-color="#AB2027" offset="100%"></stop>
        </radialGradient>
        <radialGradient cx="13.2704099%" cy="144.885335%" fx="13.2704099%" fy="144.885335%" r="378.137383%" gradientTransform="translate(0.132704,1.448853),scale(1.000000,0.498744),translate(-0.132704,-1.448853)" id="radialGradient-9">
            <stop stop-color="#FFFFFF" offset="0%"></stop>
            <stop stop-color="#E7B539" offset="50%"></stop>
            <stop stop-color="#AB2027" offset="100%"></stop>
        </radialGradient>
        <radialGradient cx="50.4383294%" cy="74.5466908%" fx="50.4383294%" fy="74.5466908%" r="98.8213962%" gradientTransform="translate(0.504383,0.745467),scale(0.577860,1.000000),translate(-0.504383,-0.745467)" id="radialGradient-10">
            <stop stop-color="#FFFFFF" offset="0%"></stop>
            <stop stop-color="#E7B539" offset="50%"></stop>
            <stop stop-color="#AB2027" offset="100%"></stop>
        </radialGradient>
        <radialGradient cx="50%" cy="49.96875%" fx="50%" fy="49.96875%" r="124.5625%" gradientTransform="translate(0.500000,0.499688),scale(0.437756,1.000000),translate(-0.500000,-0.499688)" id="radialGradient-11">
            <stop stop-color="#FFFFFF" offset="0%"></stop>
            <stop stop-color="#FFFFFF" offset="33%"></stop>
            <stop stop-color="#FFFFFF" stop-opacity="0" offset="66%"></stop>
            <stop stop-color="#FFFFFF" stop-opacity="0" offset="100%"></stop>
        </radialGradient>
        <linearGradient x1="49.9184339%" y1="-283.887422%" x2="49.9184339%" y2="109.018178%" id="linearGradient-12">
            <stop stop-color="#FFFFFF" offset="0%"></stop>
            <stop stop-color="#FFFFFF" stop-opacity="0" offset="100%"></stop>
        </linearGradient>
        <linearGradient x1="-97.2926484%" y1="49.9929058%" x2="93.4010695%" y2="49.9929058%" id="linearGradient-13">
            <stop stop-color="#FFFFFF" offset="0%"></stop>
            <stop stop-color="#FFFFFF" stop-opacity="0" offset="100%"></stop>
        </linearGradient>
    </defs>
    <g id="Page-1" stroke="none" stroke-width="1" fill="none" fill-rule="evenodd">
        <g id="Desktop-Full-HD" transform="translate(-479.000000, -350.000000)">
            <g id="logo1" transform="translate(479.000000, 350.000000)">
                <g id="Group" transform="translate(0.000000, 0.000000)">
                    <path d="M47.0049054,186.020221 L47.0049054,188.005515 L48.650126,188.005515 L48.650126,188.704044 L47.0416701,188.704044 L47.0416701,193.869485 C47.0159189,194.207254 47.0962481,194.544636 47.2714495,194.834559 C47.4660958,195.058811 47.757092,195.17521 48.0526995,195.147059 C48.2871473,195.14147 48.5207559,195.116879 48.7512289,195.073529 L48.7512289,195.772059 C48.4540641,195.864706 48.1430868,195.905133 47.8321113,195.891544 C47.3472878,195.936676 46.8698073,195.749094 46.5453466,195.386029 C46.2520934,194.940416 46.1132439,194.41085 46.150126,193.878676 L46.150126,188.704044 L44.7254936,188.704044 L44.7254936,188.005515 L46.150126,188.005515 L46.150126,186.020221 L47.0049054,186.020221 Z" id="Path" fill="#3F3C3C" fill-rule="nonzero"></path>
                    <path d="M55.2769642,195.753676 C55.1769997,195.400428 55.1214248,195.036104 55.111523,194.669118 C54.8123199,195.067596 54.4170642,195.383801 53.962626,195.588235 C53.497651,195.797827 52.9928631,195.904429 52.4828466,195.900735 C51.813896,195.938105 51.1560545,195.717728 50.6446113,195.284926 C50.1612891,194.837119 49.9087981,194.193192 49.9589218,193.536214 C50.0090454,192.879237 50.3563013,192.281067 50.9019642,191.911765 C51.6873946,191.430403 52.601992,191.202556 53.5214495,191.259191 L55.0839495,191.259191 L55.0839495,190.340074 C55.1118218,189.852437 54.9275046,189.376564 54.5784348,189.034926 C54.1586291,188.689729 53.6224263,188.51867 53.080273,188.556985 C52.5484829,188.532674 52.024956,188.69526 51.6004936,189.016544 C51.235911,189.265931 51.0162552,189.677786 51.0122583,190.119485 L50.1482877,190.119485 C50.1639949,189.478918 50.4851186,188.884497 51.0122583,188.520221 C51.6175245,188.056751 52.364261,187.816497 53.1262289,187.840074 C53.8634427,187.79959 54.5897653,188.031883 55.1666701,188.492647 C55.6925686,188.954382 55.977213,189.632107 55.9387289,190.330882 L55.9387289,194.007353 C55.9116305,194.578067 55.9927121,195.148757 56.1776995,195.689338 L56.1776995,195.78125 L55.2769642,195.753676 Z M52.5839495,195.137868 C53.125634,195.147715 53.6586346,195.0009 54.118876,194.715074 C54.553393,194.458617 54.8971577,194.073086 55.1023318,193.612132 L55.1023318,191.865809 L53.5765966,191.865809 C52.8755946,191.837136 52.1799418,191.999137 51.5637289,192.334559 C51.1146753,192.589299 50.8399381,193.068328 50.8468171,193.584559 C50.8346811,193.999605 51.010252,194.398016 51.3247583,194.669118 C51.6703022,194.978661 52.1201071,195.146107 52.5839495,195.137868 Z" id="Shape" fill="#3F3C3C" fill-rule="nonzero"></path>
                    <path d="M57.8964495,191.801471 C57.8380347,190.779196 58.1227,189.766693 58.705273,188.924632 C59.2129839,188.229032 60.0320697,187.829813 60.892773,187.858456 C61.8634832,187.81469 62.7829483,188.295479 63.3008613,189.117647 L63.3008613,188.005515 L64.1096848,188.005515 L64.1096848,195.597426 C64.1533471,196.464301 63.8527234,197.313315 63.2732877,197.959559 C62.6820337,198.575347 61.8561874,198.909698 61.0030671,198.878676 C60.4668876,198.876921 59.9383902,198.751088 59.4589495,198.511029 C58.9937602,198.298377 58.5939144,197.965172 58.3008613,197.545956 L58.7788024,197.03125 C59.285959,197.719719 60.0838314,198.133934 60.9387289,198.152574 C61.5638242,198.188395 62.1748817,197.957997 62.6207142,197.518382 C63.0417048,197.032782 63.2619045,196.405049 63.236523,195.762868 L63.236523,194.788603 C62.6845788,195.553948 61.7795948,195.983902 60.837626,195.928309 C59.9841709,195.948858 59.1756984,195.546342 58.6776995,194.852941 C58.0930559,194.004556 57.8054471,192.986615 57.8596848,191.957721 L57.8964495,191.801471 Z M58.7604201,191.957721 C58.7176972,192.778536 58.9260935,193.592885 59.3578466,194.292279 C59.7315615,194.850487 60.3686241,195.17424 61.0398318,195.147059 C62.009874,195.199383 62.9064861,194.63116 63.2732877,193.731618 L63.2732877,190.128676 C63.1078084,189.672285 62.8062393,189.277678 62.4093171,188.998162 C62.0090928,188.725878 61.5328407,188.587508 61.049023,188.602941 C60.3807408,188.579043 59.7464877,188.897903 59.3670377,189.448529 C58.9138078,190.203546 58.7021489,191.079044 58.7604201,191.957721 Z" id="Shape" fill="#3F3C3C" fill-rule="nonzero"></path>
                    <polygon id="Path" fill="#3F3C3C" fill-rule="nonzero" points="67.3357877 195.753676 66.4810083 195.753676 66.4810083 184.724265 67.3357877 184.724265"></polygon>
                    <path d="M69.6151995,185.762868 C69.6138941,185.613087 69.6697767,185.46845 69.7714495,185.358456 C70.0130797,185.127361 70.3937899,185.127361 70.6354201,185.358456 C70.743897,185.464731 70.8037486,185.611035 70.8008613,185.762868 C70.8048668,185.914907 70.7448394,186.061641 70.6354201,186.167279 C70.470435,186.345807 70.212629,186.404461 69.9866468,186.314883 C69.7606645,186.225304 69.6130608,186.005947 69.6151995,185.762868 L69.6151995,185.762868 Z M70.6262289,195.753676 L69.7898318,195.753676 L69.7898318,188.005515 L70.6538024,188.005515 L70.6262289,195.753676 Z" id="Shape" fill="#3F3C3C" fill-rule="nonzero"></path>
                    <path d="M73.7696113,188.005515 L73.7696113,189.329044 C74.0329475,188.878709 74.4060728,188.502421 74.8541701,188.235294 C75.2938501,187.98542 75.7914709,187.855468 76.2971848,187.858456 C76.9827046,187.810553 77.6547102,188.065915 78.1354201,188.556985 C78.5815913,189.164443 78.7996102,189.909612 78.7512289,190.661765 L78.7512289,195.753676 L77.8964495,195.753676 L77.8964495,190.661765 C77.9396538,190.107919 77.7831528,189.556905 77.455273,189.108456 C77.0937323,188.743349 76.588458,188.558082 76.0765966,188.602941 C75.5611639,188.597188 75.0601232,188.772877 74.6611554,189.099265 C74.2339873,189.450595 73.9152725,189.915919 73.7420377,190.441176 L73.7420377,195.753676 L72.8872583,195.753676 L72.8872583,188.005515 L73.7696113,188.005515 Z" id="Path" fill="#3F3C3C" fill-rule="nonzero"></path>
                    <path d="M84.0085818,195.891544 C83.3800116,195.901851 82.7615119,195.73288 82.2254936,195.404412 C81.6915239,195.081568 81.2609996,194.612775 80.9846848,194.053309 C80.6766718,193.447403 80.5220285,192.775178 80.5343171,192.095588 L80.5343171,191.792279 C80.5242405,191.097289 80.6719413,190.409066 80.9663024,189.779412 C81.2363851,189.209755 81.6556205,188.723824 82.1795377,188.373162 C82.6732403,188.038426 83.2558509,187.859162 83.8523318,187.858456 C84.7078128,187.821991 85.5333119,188.177226 86.0949789,188.823529 C86.6816575,189.569767 86.9757974,190.504478 86.9221848,191.452206 L86.9221848,191.930147 L81.4074789,191.930147 L81.4074789,192.095588 C81.3781814,192.89586 81.6467227,193.67856 82.1611554,194.292279 C82.6198957,194.875382 83.3218115,195.214471 84.0637289,195.211397 C84.4822827,195.21727 84.8968388,195.129334 85.2769642,194.954044 C85.640959,194.762029 85.9555479,194.488336 86.1960818,194.154412 L86.7383613,194.558824 C86.1212818,195.446581 85.0881031,195.950995 84.0085818,195.891544 Z M83.8523318,188.59375 C83.2327545,188.58093 82.638501,188.839447 82.2254936,189.301471 C81.7584846,189.832296 81.4748733,190.499427 81.4166701,191.204044 L86.0674054,191.204044 L86.0674054,191.112132 C86.0735033,190.44472 85.8495471,189.795571 85.4332142,189.273897 C85.0370158,188.818691 84.4552773,188.568409 83.8523318,188.59375 L83.8523318,188.59375 Z" id="Shape" fill="#3F3C3C" fill-rule="nonzero"></path>
                    <path d="M91.8486554,191.801471 C91.7931257,190.78085 92.0740401,189.770204 92.6482877,188.924632 C93.1570585,188.230299 93.9754298,187.831429 94.8357877,187.858456 C95.8064979,187.81469 96.725963,188.295479 97.243876,189.117647 L97.2898318,188.005515 L98.0894642,188.005515 L98.0894642,195.597426 C98.1372077,196.464892 97.8360466,197.315424 97.2530671,197.959559 C96.6624882,198.576343 95.836175,198.910883 94.9828466,198.878676 C94.446667,198.876921 93.9181696,198.751088 93.4387289,198.511029 C92.9767617,198.293291 92.5781156,197.961085 92.2806407,197.545956 L92.7585818,197.03125 C93.2676932,197.72225 94.0695469,198.136768 94.9276995,198.152574 C95.5500218,198.188088 96.1581299,197.957541 96.6004936,197.518382 C97.0248049,197.034167 97.2483449,196.406282 97.2254936,195.762868 L97.2254936,194.788603 C96.6735494,195.553948 95.7685654,195.983902 94.8265966,195.928309 C93.9727815,195.95048 93.1635922,195.547607 92.6666701,194.852941 C92.076875,194.006986 91.7887563,192.98724 91.8486554,191.957721 L91.8486554,191.801471 Z M92.712626,191.957721 C92.6699031,192.778536 92.8782994,193.592885 93.3100524,194.292279 C93.6808033,194.84901 94.3144585,195.172801 94.9828466,195.147059 C95.9554401,195.200574 96.8553337,194.632608 97.2254936,193.731618 L97.2254936,190.128676 C97.0569427,189.673971 96.7560119,189.2802 96.361523,188.998162 C95.9607583,188.727028 95.4848869,188.588768 95.0012289,188.602941 C94.3301105,188.577596 93.692447,188.896427 93.3100524,189.448529 C92.851506,190.202275 92.6305181,191.076618 92.6758613,191.957721 L92.712626,191.957721 Z" id="Shape" fill="#3F3C3C" fill-rule="nonzero"></path>
                    <path d="M99.8174054,191.764706 C99.8073287,191.069715 99.9550295,190.381493 100.249391,189.751838 C100.785519,188.574872 101.971081,187.830281 103.264097,187.858456 C104.221631,187.821054 105.14446,188.219933 105.773288,188.943015 C106.45568,189.758702 106.800879,190.80416 106.738361,191.865809 L106.738361,192.040441 C106.748366,192.742333 106.597447,193.437188 106.297185,194.071691 C106.037155,194.640562 105.615143,195.120121 105.083949,195.450368 C104.532072,195.789122 103.892925,195.958496 103.245714,195.9375 C102.291605,195.970754 101.373292,195.572369 100.745714,194.852941 C100.072794,194.049982 99.7280884,193.022431 99.7806407,191.976103 L99.8174054,191.764706 Z M100.672185,191.994485 C100.641647,192.818453 100.898312,193.627436 101.398288,194.283088 C101.84382,194.87243 102.543773,195.21387 103.282479,195.202206 C104.020523,195.210913 104.719214,194.870088 105.16667,194.283088 C105.668706,193.60435 105.921853,192.77351 105.883582,191.930147 L105.883582,191.764706 C105.891414,191.204955 105.77856,190.650087 105.552699,190.137868 C105.361774,189.677796 105.042762,189.282221 104.633582,188.998162 C104.230001,188.72475 103.751463,188.583436 103.264097,188.59375 C102.540507,188.592296 101.858852,188.933124 101.425861,189.512868 C100.920555,190.190399 100.664129,191.021348 100.699758,191.865809 L100.672185,191.994485 Z" id="Shape" fill="#3F3C3C" fill-rule="nonzero"></path>
                    <path d="M111.508582,195.891544 C110.876964,195.903095 110.255174,195.734096 109.716302,195.404412 C109.182333,195.081568 108.751808,194.612775 108.475494,194.053309 C108.174804,193.445118 108.023558,192.773964 108.034317,192.095588 L108.034317,191.792279 C108.020637,191.096938 108.168511,190.407908 108.466302,189.779412 C108.729884,189.208337 109.146677,188.721548 109.670347,188.373162 C110.164049,188.038426 110.74666,187.859162 111.343141,187.858456 C112.200138,187.813631 113.029149,188.170377 113.585788,188.823529 C114.172466,189.569767 114.466606,190.504478 114.412994,191.452206 L114.412994,191.930147 L108.898288,191.930147 L108.898288,192.095588 C108.872427,192.896924 109.144186,193.679457 109.661155,194.292279 C110.114304,194.877292 110.814572,195.217228 111.554538,195.211397 C111.975945,195.216186 112.393258,195.128331 112.776964,194.954044 C113.141533,194.762868 113.4563,194.489021 113.696082,194.154412 L114.238361,194.558824 C113.621282,195.446581 112.588103,195.950995 111.508582,195.891544 L111.508582,195.891544 Z M111.343141,188.59375 C110.723563,188.58093 110.12931,188.839447 109.716302,189.301471 C109.249293,189.832296 108.965682,190.499427 108.907479,191.204044 L113.558214,191.204044 L113.558214,191.112132 C113.564312,190.44472 113.340356,189.795571 112.924023,189.273897 C112.527825,188.818691 111.946086,188.568409 111.343141,188.59375 L111.343141,188.59375 Z" id="Shape" fill="#3F3C3C" fill-rule="nonzero"></path>
                    <path d="M120.718141,193.777574 C120.729583,193.374638 120.540152,192.992331 120.212626,192.757353 C119.746505,192.448428 119.220261,192.241689 118.668508,192.150735 C118.117984,192.047844 117.581291,191.881285 117.069244,191.654412 C116.730601,191.50039 116.438832,191.259363 116.223655,190.955882 C116.033132,190.664067 115.936876,190.320756 115.94792,189.972426 C115.939585,189.372732 116.224327,188.806679 116.710788,188.455882 C117.931716,187.627992 119.533977,187.627992 120.754905,188.455882 C121.267119,188.857039 121.557322,189.478414 121.536155,190.128676 L120.681376,190.128676 C120.685906,189.681746 120.473495,189.260352 120.111523,188.998162 C119.283923,188.445338 118.213422,188.413223 117.35417,188.915441 C117.029016,189.136631 116.835881,189.505657 116.839464,189.898897 C116.820609,190.258249 116.982743,190.603216 117.271449,190.818015 C117.747979,191.107446 118.275052,191.303928 118.824758,191.397059 C119.409747,191.516838 119.97775,191.708231 120.515935,191.966912 C120.84912,192.130187 121.134167,192.377228 121.343141,192.683824 C121.854988,193.553087 121.633586,194.668004 120.828435,195.275735 C120.222005,195.692757 119.495546,195.899395 118.76042,195.863971 C117.975282,195.902611 117.20043,195.672425 116.563729,195.211397 C116.033668,194.827739 115.722025,194.211301 115.727332,193.556985 L116.582111,193.556985 C116.601411,194.023274 116.835605,194.454326 117.216302,194.724265 C117.673759,195.024029 118.214065,195.17197 118.76042,195.147059 C119.270768,195.168118 119.775041,195.030005 120.203435,194.751838 C120.523442,194.530296 120.71549,194.166776 120.718141,193.777574 Z" id="Path" fill="#3F3C3C" fill-rule="nonzero"></path>
                    <path d="M127.924023,189.310662 C128.190729,188.86778 128.563446,188.498222 129.008582,188.235294 C129.448262,187.98542 129.945883,187.855468 130.451597,187.858456 C131.137303,187.809285 131.809824,188.064843 132.289832,188.556985 C132.739634,189.162642 132.958051,189.909172 132.905641,190.661765 L132.905641,195.753676 L132.060052,195.753676 L132.060052,190.661765 C132.094639,190.108812 131.938955,189.560675 131.618876,189.108456 C131.252417,188.745135 130.745291,188.56042 130.231008,188.602941 C129.7182,188.596186 129.21972,188.77212 128.824758,189.099265 C128.395295,189.448487 128.07608,189.914541 127.905641,190.441176 L127.905641,195.753676 L127.060052,195.753676 L127.060052,184.724265 L127.905641,184.724265 L127.924023,189.310662 Z" id="Path" fill="#3F3C3C" fill-rule="nonzero"></path>
                    <path d="M138.126229,195.891544 C137.479079,195.912 136.840085,195.742667 136.287994,195.404412 C135.758133,195.076573 135.328826,194.609104 135.047185,194.053309 C134.746495,193.445118 134.595249,192.773964 134.606008,192.095588 L134.606008,191.792279 C134.595932,191.097289 134.743632,190.409066 135.037994,189.779412 C135.304768,189.210391 135.72089,188.724386 136.242038,188.373162 C136.739069,188.038208 137.324662,187.85901 137.924023,187.858456 C138.777857,187.816535 139.602847,188.173012 140.157479,188.823529 C140.744158,189.569767 141.038297,190.504478 140.984685,191.452206 L140.984685,191.930147 L135.469979,191.930147 L135.469979,192.095588 C135.440681,192.89586 135.709223,193.67856 136.223655,194.292279 C136.682396,194.875382 137.384312,195.214471 138.126229,195.211397 C138.544783,195.21727 138.959339,195.129334 139.339464,194.954044 C139.703459,194.762029 140.018048,194.488336 140.258582,194.154412 L140.79167,194.558824 C140.188151,195.428024 139.183701,195.930249 138.126229,195.891544 Z M137.969979,188.59375 C137.347702,188.580702 136.750536,188.839027 136.333949,189.301471 C135.866273,189.830998 135.585349,190.499405 135.534317,191.204044 L140.175861,191.204044 L140.175861,191.112132 C140.19471,190.442704 139.969284,189.789296 139.54167,189.273897 C139.149977,188.817909 138.570512,188.567147 137.969979,188.59375 Z" id="Shape" fill="#3F3C3C" fill-rule="nonzero"></path>
                    <path d="M146.278802,188.731618 C146.086289,188.711954 145.892272,188.711954 145.699758,188.731618 C145.211749,188.716795 144.733879,188.872834 144.348655,189.172794 C143.952212,189.51354 143.672556,189.969989 143.549023,190.477941 L143.549023,195.799632 L142.703435,195.799632 L142.703435,188.005515 L143.539832,188.005515 L143.539832,189.237132 C143.914665,188.370224 144.783539,187.822615 145.727332,187.858456 C145.921625,187.848817 146.115774,187.880132 146.297185,187.950368 L146.278802,188.731618 Z" id="Path" fill="#3F3C3C" fill-rule="nonzero"></path>
                    <path d="M150.672185,195.891544 C149.394918,195.910079 148.219808,195.195726 147.648288,194.053309 C147.340275,193.447403 147.185631,192.775178 147.19792,192.095588 L147.19792,191.792279 C147.187843,191.097289 147.335544,190.409066 147.629905,189.779412 C147.897454,189.210891 148.313415,188.725074 148.833949,188.373162 C149.327157,188.037394 149.910092,187.85803 150.506744,187.858456 C151.360578,187.816535 152.185567,188.173012 152.740199,188.823529 C153.326878,189.569767 153.621018,190.504478 153.567405,191.452206 L153.567405,191.930147 L148.052699,191.930147 L148.052699,192.095588 C148.023402,192.89586 148.291943,193.67856 148.806376,194.292279 C149.265116,194.875382 149.967032,195.214471 150.708949,195.211397 C151.127503,195.21727 151.542059,195.129334 151.922185,194.954044 C152.28618,194.762029 152.600769,194.488336 152.841302,194.154412 L153.383582,194.558824 C152.768841,195.439469 151.744948,195.942738 150.672185,195.891544 Z M150.515935,188.59375 C149.896357,188.58093 149.302104,188.839447 148.889097,189.301471 C148.418667,189.830136 148.134547,190.498462 148.080273,191.204044 L152.731008,191.204044 L152.731008,191.112132 C152.738338,190.442966 152.510654,189.792438 152.087626,189.273897 C151.688771,188.806163 151.092591,188.554064 150.47917,188.59375 L150.515935,188.59375 Z" id="Shape" fill="#3F3C3C" fill-rule="nonzero"></path>
                    <path d="M22.6482877,172.426471 C21.6059944,173.883511 20.1532907,174.997037 18.4754936,175.625 C16.4869203,176.367891 14.3754064,176.726568 12.2530671,176.681985 C10.0120114,176.723638 7.80351936,176.141284 5.87439067,175 C3.99933461,173.856576 2.50064136,172.188521 1.5637289,170.202206 C0.505040229,167.949187 -0.0291778089,165.485499 0.00122890358,162.996324 L0.00122890358,160.441176 C0.00122890358,156.011029 1.03370439,152.576593 3.09865537,150.137868 C5.16667008,147.711397 8.06189067,146.461397 11.8118907,146.461397 C14.4808768,146.330573 17.1076252,147.165912 19.2107877,148.814338 C21.1607417,150.522683 22.3893617,152.907652 22.6482877,155.487132 L18.7696113,155.487132 C18.0404446,151.583946 15.7273318,149.632353 11.830273,149.632353 C9.5213181,149.49582 7.2991454,150.532604 5.92034655,152.389706 C4.58762596,154.227941 3.9074789,156.856618 3.89828773,160.3125 L3.89828773,162.720588 C3.89828773,166.017157 4.6519642,168.639706 6.15931714,170.588235 C7.5997412,172.498999 9.87985849,173.589341 12.2714495,173.511029 C13.5595967,173.530961 14.8439948,173.366929 16.0857877,173.023897 C17.1207413,172.739532 18.0562924,172.17311 18.7879936,171.387868 L18.7879936,164.806985 L11.986523,164.806985 L11.986523,161.636029 L22.6482877,161.636029 L22.6482877,172.426471 Z" id="Path" fill="#3F3C3C" fill-rule="nonzero"></path>
                    <path d="M37.6207142,176.681985 C34.90735,176.785251 32.2789651,175.725202 30.3964495,173.768382 C28.4802511,171.635049 27.4886036,168.828686 27.6390966,165.965074 L27.6390966,165.284926 C27.6033666,163.279273 28.0278385,161.292116 28.8799054,159.476103 C29.6444277,157.849537 30.8435891,156.465889 32.3449789,155.477941 C33.780783,154.534667 35.4616042,154.032977 37.1795377,154.034926 C39.7042059,153.899203 42.1500176,154.937231 43.806376,156.847426 C45.3811309,158.685662 46.1685083,161.363358 46.1685083,164.880515 L46.1685083,166.433824 L31.3707142,166.433824 C31.3357234,168.343691 32.0066303,170.199321 33.2549054,171.645221 C34.4160454,172.957489 36.0989296,173.687861 37.8504936,173.639706 C39.0179302,173.673908 40.1732001,173.394612 41.1960818,172.830882 C42.1287755,172.278191 42.9463484,171.551113 43.6041701,170.689338 L45.8835818,172.463235 C44.0931694,175.258385 40.9347327,176.870979 37.6207142,176.681985 L37.6207142,176.681985 Z M37.1519642,157.104779 C35.7109247,157.078464 34.3293646,157.678705 33.3651995,158.75 C32.2547016,160.038263 31.5877061,161.649363 31.462626,163.345588 L42.4001339,163.345588 L42.4001339,163.060662 C42.4025299,161.45874 41.8613975,159.903389 40.8651995,158.648897 C39.914061,157.592116 38.5346882,157.024139 37.1151995,157.104779 L37.1519642,157.104779 Z" id="Shape" fill="#3F3C3C" fill-rule="nonzero"></path>
                    <path d="M53.9534348,154.439338 L54.0729201,157.196691 C55.6226123,155.157318 58.0563581,153.984881 60.6170377,154.044118 C65.2310083,154.044118 67.556376,156.648284 67.5931407,161.856618 L67.5931407,176.240809 L63.861523,176.240809 L63.861523,161.829044 C63.9556864,160.570948 63.5716501,159.323651 62.7861554,158.336397 C61.8928731,157.514534 60.6961243,157.104506 59.486523,157.205882 C58.3465758,157.181199 57.228748,157.522668 56.2971848,158.180147 C55.3737106,158.823831 54.6352791,159.69854 54.1556407,160.716912 L54.1556407,176.240809 L50.424023,176.240809 L50.424023,154.439338 L53.9534348,154.439338 Z" id="Path" fill="#3F3C3C" fill-rule="nonzero"></path>
                    <path d="M78.2916701,149.154412 L78.2916701,154.439338 L82.3725524,154.439338 L82.3725524,157.325368 L78.2916701,157.325368 L78.2916701,170.891544 C78.2402136,171.591459 78.435313,172.287313 78.8431407,172.858456 C79.3247752,173.344908 80.0001968,173.588059 80.681376,173.520221 C81.279523,173.497445 81.8738392,173.414303 82.455273,173.272059 L82.455273,176.286765 C81.5211449,176.545082 80.5568046,176.677988 79.587626,176.681985 C78.1644684,176.781804 76.7735415,176.226787 75.8100524,175.174632 C74.8923922,173.935666 74.4430474,172.411801 74.5416701,170.873162 L74.5416701,157.325368 L70.5618907,157.325368 L70.5618907,154.439338 L74.5416701,154.439338 L74.5416701,149.154412 L78.2916701,149.154412 Z" id="Path" fill="#3F3C3C" fill-rule="nonzero"></path>
                    <polygon id="Path" fill="#3F3C3C" fill-rule="nonzero" points="90.7916701 176.240809 87.0508613 176.240809 87.0508613 145.275735 90.7916701 145.275735"></polygon>
                    <path d="M105.828435,176.681985 C103.115071,176.785251 100.486686,175.725202 98.6041701,173.768382 C96.6888536,171.634526 95.6973391,168.82854 95.8468171,165.965074 L95.8468171,165.284926 C95.8139592,163.278556 96.2415826,161.291365 97.0968171,159.476103 C97.8584905,157.847685 99.0582634,156.463332 100.561891,155.477941 C101.997695,154.534667 103.678516,154.032977 105.396449,154.034926 C107.921118,153.899203 110.366929,154.937231 112.023288,156.847426 C113.591915,158.685662 114.376229,161.363358 114.376229,164.880515 L114.376229,166.433824 L99.5508613,166.433824 C99.5158705,168.343691 100.186777,170.199321 101.435052,171.645221 C102.596193,172.957489 104.279077,173.687861 106.030641,173.639706 C107.198077,173.673908 108.353347,173.394612 109.376229,172.830882 C110.308923,172.278191 111.126495,171.551113 111.784317,170.689338 L114.063729,172.463235 C112.278268,175.249482 109.132835,176.860814 105.828435,176.681985 L105.828435,176.681985 Z M105.359685,157.104779 C103.916182,157.079436 102.532182,157.67928 101.563729,158.75 C100.459899,160.041504 99.7966461,161.651341 99.6703466,163.345588 L110.607847,163.345588 L110.607847,163.060662 C110.605923,161.459471 110.065272,159.905502 109.07292,158.648897 C108.130047,157.602424 106.766563,157.035431 105.359685,157.104779 L105.359685,157.104779 Z" id="Shape" fill="#3F3C3C" fill-rule="nonzero"></path>
                    <path d="M140.865199,166.957721 C140.679573,169.707344 139.449798,172.28198 137.427699,174.154412 C135.260173,175.918537 132.516836,176.818796 129.725494,176.681985 C126.514971,176.802192 123.430974,175.423224 121.379905,172.950368 C119.284317,170.456495 118.236523,167.126225 118.236523,162.959559 L118.236523,160.137868 C118.183217,157.65725 118.682406,155.195839 119.69792,152.931985 C120.583,150.965234 122.027974,149.302875 123.852332,148.152574 C125.723177,147.018725 127.878461,146.441645 130.065567,146.488971 C132.811826,146.356502 135.502803,147.291921 137.574758,149.099265 C139.539523,151.016472 140.713677,153.600922 140.865199,156.341912 L136.968141,156.341912 C136.637258,153.988971 135.901964,152.288603 134.780641,151.240809 C133.475231,150.119159 131.783274,149.551875 130.065567,149.659926 C127.790418,149.564526 125.614264,150.595879 124.247552,152.417279 C122.841302,154.255515 122.133582,156.856618 122.133582,160.229779 L122.133582,163.079044 C121.996091,165.763847 122.692786,168.425417 124.128067,170.698529 C125.382397,172.542526 127.496848,173.611904 129.725494,173.529412 C131.499276,173.644814 133.256008,173.123335 134.679538,172.058824 C135.831499,171.084559 136.594366,169.387255 136.968141,166.966912 L140.865199,166.957721 Z" id="Path" fill="#3F3C3C" fill-rule="nonzero"></path>
                    <path d="M159.054538,176.240809 C158.75856,175.507693 158.581696,174.731972 158.530641,173.943015 C156.932657,175.684145 154.6714,176.666138 152.308214,176.645221 C150.375559,176.717187 148.486277,176.061187 147.014097,174.806985 C145.675569,173.658939 144.917613,171.974592 144.946082,170.211397 C144.854759,168.118461 145.830547,166.121903 147.537994,164.908088 C149.265935,163.645833 151.698533,163.01777 154.835788,163.023897 L158.512258,163.023897 L158.512258,161.305147 C158.570865,160.1498 158.148276,159.021789 157.344979,158.189338 C156.39482,157.355681 155.14972,156.93844 153.889097,157.03125 C152.694025,156.987824 151.518023,157.339978 150.543508,158.033088 C149.714077,158.57332 149.204975,159.488328 149.183214,160.477941 L145.433214,160.477941 C145.457361,159.324646 145.864819,158.21222 146.591302,157.316176 C147.421513,156.259698 148.506216,155.43115 149.743876,154.908088 C151.117696,154.296186 152.605767,153.982908 154.109685,153.988971 C156.249271,153.864082 158.358903,154.538902 160.028802,155.882353 C161.483635,157.211408 162.291527,159.10543 162.243876,161.075368 L162.243876,171.130515 C162.179525,172.759222 162.442041,174.384321 163.015935,175.909926 L163.015935,176.240809 L159.054538,176.240809 Z M152.859685,173.483456 C154.031024,173.480376 155.180066,173.162961 156.186891,172.564338 C157.168853,172.026591 157.963886,171.202706 158.466302,170.202206 L158.466302,165.716912 L155.543508,165.716912 C150.966302,165.716912 148.677699,167.05576 148.677699,169.733456 C148.619457,170.783629 149.050421,171.801655 149.844979,172.490809 C150.695721,173.17731 151.767504,173.530214 152.859685,173.483456 L152.859685,173.483456 Z" id="Shape" fill="#3F3C3C" fill-rule="nonzero"></path>
                    <path d="M178.613361,157.794118 C178.005561,157.695803 177.390826,157.646624 176.775126,157.647059 C174.601916,157.474959 172.573198,158.748979 171.784317,160.78125 L171.784317,176.240809 L168.052699,176.240809 L168.052699,154.439338 L171.683214,154.439338 L171.747552,156.966912 C172.812605,155.104867 174.814569,153.978542 176.958949,154.034926 C177.524608,154.007988 178.089303,154.105242 178.613361,154.319853 L178.613361,157.794118 Z" id="Path" fill="#3F3C3C" fill-rule="nonzero"></path>
                    <path d="M191.113361,176.681985 C188.399997,176.785251 185.771612,175.725202 183.889097,173.768382 C181.972898,171.635049 180.981251,168.828686 181.131744,165.965074 L181.131744,165.284926 C181.096014,163.279273 181.520486,161.292116 182.372552,159.476103 C183.137075,157.849537 184.336236,156.465889 185.837626,155.477941 C187.273888,154.535652 188.954408,154.034052 190.672185,154.034926 C193.196853,153.899203 195.642665,154.937231 197.299023,156.847426 C198.86765,158.685662 199.655028,161.363358 199.661155,164.880515 L199.661155,166.433824 L184.863361,166.433824 C184.815614,168.33771 185.469908,170.192634 186.701597,171.645221 C187.862737,172.957489 189.545621,173.687861 191.297185,173.639706 C192.464621,173.673908 193.619891,173.394612 194.642773,172.830882 C195.575467,172.278191 196.39304,171.551113 197.050861,170.689338 L199.330273,172.463235 C197.548124,175.243566 194.411344,176.854061 191.113361,176.681985 L191.113361,176.681985 Z M190.644611,157.104779 C189.203572,157.078464 187.822012,157.678705 186.857847,158.75 C185.747349,160.038263 185.080353,161.649363 184.955273,163.345588 L195.892776,163.345588 L195.892776,163.060662 C195.894184,161.460442 195.356731,159.90636 194.367038,158.648897 C193.416925,157.601683 192.047694,157.035105 190.63542,157.104779 L190.644611,157.104779 Z" id="Shape" fill="#3F3C3C" fill-rule="nonzero"></path>
                    <path d="M128.833949,66.8106618 C131.030641,62.0863971 133.080273,48.9430147 135.901964,44.8161765 C127.629905,47.5735294 130.662994,68.0698529 123.227332,73.9613971 C134.449758,69.5772059 135.901964,44.8161765 145.231008,39.7977941 C134.210788,42.2977941 133.723655,59.0625 128.833949,66.8106618 Z" id="Path" fill="url(#radialGradient-1)"></path>
                    <path d="M128.153802,73.0514706 C117.731008,82.4448529 112.446082,78.3455882 121.067405,67.5367647 C127.289832,59.7518382 128.475494,52.7297794 123.549023,47.3713235 C122.087626,58.5386029 115.561891,64.1268382 104.036155,70.7536765 C78.7879936,85.2573529 75.7273318,111.783088 87.7401995,135.211397 C90.4975524,122.472426 95.9295377,115.909926 104.468141,116.663603 C91.361523,114.53125 90.9754936,104.871324 90.6078466,100.992647 C85.7549054,104.806985 84.7622583,111.443015 85.9479201,121.691176 C81.1868907,104.319853 87.9056407,97.1599265 97.2714495,93.75 C114.900126,87.3161765 129.688729,89.1084559 137.960788,68.5753676 C143.475494,54.9816176 143.475494,37.0955882 165.690567,37.1599265 C136.205273,32.0404412 140.175861,62.2150735 128.153802,73.0514706 Z" id="Path" fill="url(#radialGradient-2)"></path>
                    <path d="M105.037994,72.5183824 C92.5104201,79.7150735 84.3026995,90.8363971 83.1078466,105.340074 C83.9718171,98.8327206 91.1776995,92.65625 98.9534348,90.8639706 C101.490199,74.7426471 123.493876,69.3014706 124.367038,52.9595588 C121.343141,62.2702206 114.026964,67.3529412 105.037994,72.5183824 Z" id="Path" fill="url(#linearGradient-3)"></path>
                    <path d="M96.4442436,-2.13162821e-14 C89.3578466,6.14889706 86.2604201,13.6029412 86.8670377,22.2518382 C95.9019642,25.0091912 110.892773,26.8474265 120.102332,32.1231618 C115.037994,21.8290441 98.1721848,17.3529412 96.4442436,-2.13162821e-14 Z" id="Path" fill="url(#radialGradient-4)"></path>
                    <path d="M96.4442436,-7.10542736e-15 C89.799023,17.9319853 114.118876,21.9485294 120.102332,32.1231618 C115.037994,21.8290441 98.1721848,17.3529412 96.4442436,-7.10542736e-15 Z" id="Path" fill="url(#radialGradient-5)"></path>
                    <path d="M96.0582142,1.25919118 C91.5545377,16.2591912 109.486523,21.1305147 117.620714,29.0165441 C110.497552,20.3860294 92.8872583,15.3033088 96.0582142,1.25919118 Z" id="Path" fill="url(#radialGradient-6)"></path>
                    <path d="M93.3468171,6.28676471 C90.2498745,10.4490158 88.6615818,15.5412766 88.8431407,20.7261029 C92.0508613,21.6452206 95.3504936,22.3345588 98.6041701,23.0698529 C94.2199789,18.9338235 91.5913024,13.6029412 93.3468171,6.28676471 Z" id="Path" fill="url(#linearGradient-7)"></path>
                    <path d="M121.26042,32.6838235 C127.363361,35.8547794 130.32292,41.5165441 128.751229,47.96875 C131.306376,21.7095588 67.0232877,33.1709559 58.650126,7.41727941 C51.7935083,38.9981618 74.3486554,77.5183824 106.701597,58.4283088 C103.080273,62.65625 96.0214495,65.2849265 90.3872583,65.9650735 C76.4166701,83.2077206 72.6482877,96.8566176 79.9920377,119.329044 C75.7824789,98.1893382 83.9442436,79.53125 102.758582,68.7316176 C115.966302,61.1397059 120.148288,57.8584559 122.115199,42.8676471 C125.286155,45.5238971 127.850494,48.125 128.411155,52.6470588 C129.918508,46.9301471 131.085788,44.3106618 137.004905,42.3345588 C140.754905,37.9319853 145.708949,36.8841912 149.817405,36.3602941 C154.743876,34.3198529 159.69792,34.0441176 167.216302,35.8823529 C163.493876,32.5827206 159.440567,30.3676471 154.936891,29.8161765 C148.60417,16.6819853 133.861523,15.1286765 121.26042,32.6838235 Z" id="Path" fill="url(#radialGradient-8)"></path>
                    <path d="M90.3964495,65.9466912 C76.4258613,83.1893382 72.6574789,96.8382353 80.0012289,119.310662 C75.8468171,103.198529 77.9607877,91.9393382 82.5839495,83.4650735 C90.8560083,68.3639706 101.88542,65.5147059 106.710788,58.3915441 C103.089464,62.65625 96.0306407,65.2849265 90.3964495,65.9466912 Z" id="Path" fill="url(#radialGradient-9)"></path>
                    <path d="M58.6593171,7.41727941 C59.2843171,41.4981618 129.707111,22.0036765 128.76042,47.96875 C131.315567,21.7095588 67.0324789,33.1709559 58.6593171,7.41727941 Z" id="Path" fill="url(#radialGradient-10)"></path>
                    <path d="M58.9993907,10.9283088 C63.6409348,36.4522059 114.146449,26.5533088 126.186891,40.3400735 C116.370714,25.3768382 64.5968171,34.2371324 58.9993907,10.9283088 Z" id="Path" fill="url(#radialGradient-11)"></path>
                    <path d="M124.219979,32.1047794 C125.508208,32.9634374 126.676536,33.9895878 127.694244,35.15625 C135.313729,23.6213235 145.295347,21.0202206 152.390935,29.2003676 C144.578435,15.8272059 131.710788,22.5827206 124.219979,32.1047794 Z" id="Path" fill="url(#linearGradient-12)"></path>
                    <path d="M59.4497583,17.8125 C58.8523318,43.4375 77.2898318,73.4558824 105.690567,56.7003676 C109.863361,39.9356618 61.830273,49.3106618 59.4497583,17.8125 Z" id="Path" fill="url(#linearGradient-13)"></path>
                </g>
            </g>
        </g>
    </g>
</svg>