<?xml version="1.0" encoding="UTF-8"?>
<svg width="200px" height="198px" viewBox="0 0 200 198" version="1.1" xmlns="http://www.w3.org/2000/svg" xmlns:xlink="http://www.w3.org/1999/xlink">
    <!-- Generator: Sketch 55.2 (78181) - https://sketchapp.com -->
    <title>Logo2</title>
    <desc>Created with Sketch.</desc>
    <defs>
        <linearGradient x1="6.5102867%" y1="23.3826851%" x2="93.5721274%" y2="63.0041486%" id="linearGradient-1">
            <stop stop-color="#66AFE5" offset="10%"></stop>
            <stop stop-color="#343F92" offset="40%"></stop>
            <stop stop-color="#45318A" offset="60%"></stop>
            <stop stop-color="#C01073" offset="90%"></stop>
        </linearGradient>
        <linearGradient x1="173.460684%" y1="49.9851235%" x2="13.7858875%" y2="49.9851235%" id="linearGradient-2">
            <stop stop-color="#009FE6" offset="0%"></stop>
            <stop stop-color="#009FE6" stop-opacity="0" offset="100%"></stop>
        </linearGradient>
        <linearGradient x1="49.9763566%" y1="-10.5528116%" x2="49.9763566%" y2="69.9088146%" id="linearGradient-3">
            <stop stop-color="#984481" offset="0%"></stop>
            <stop stop-color="#984481" stop-opacity="0" offset="100%"></stop>
        </linearGradient>
        <linearGradient x1="63.9169101%" y1="8.25224551%" x2="49.9361724%" y2="60.3012725%" id="linearGradient-4">
            <stop stop-color="#984481" offset="0%"></stop>
            <stop stop-color="#984481" stop-opacity="0" offset="100%"></stop>
        </linearGradient>
        <radialGradient cx="136.440951%" cy="183.172717%" fx="136.440951%" fy="183.172717%" r="725.583168%" gradientTransform="translate(1.364410,1.831727),scale(1.000000,0.248664),translate(-1.364410,-1.831727)" id="radialGradient-5">
            <stop stop-color="#FFFFFF" offset="0%"></stop>
            <stop stop-color="#B9428D" offset="50%"></stop>
            <stop stop-color="#58368C" offset="100%"></stop>
        </radialGradient>
        <radialGradient cx="146.56294%" cy="-92.8101389%" fx="146.56294%" fy="-92.8101389%" r="274.657173%" gradientTransform="translate(1.465629,-0.928101),scale(1.000000,0.693151),translate(-1.465629,0.928101)" id="radialGradient-6">
            <stop stop-color="#FFFFFF" offset="0%"></stop>
            <stop stop-color="#B9428D" offset="50%"></stop>
            <stop stop-color="#58368C" offset="100%"></stop>
        </radialGradient>
        <radialGradient cx="377.53695%" cy="30.2567342%" fx="377.53695%" fy="30.2567342%" r="410.745966%" gradientTransform="translate(3.775370,0.302567),scale(1.000000,0.593088),translate(-3.775370,-0.302567)" id="radialGradient-7">
            <stop stop-color="#FFFFFF" offset="0%"></stop>
            <stop stop-color="#6AAFE4" offset="50%"></stop>
            <stop stop-color="#35368C" offset="100%"></stop>
        </radialGradient>
        <radialGradient cx="91.1725047%" cy="138.87878%" fx="91.1725047%" fy="138.87878%" r="103.41656%" gradientTransform="translate(0.911725,1.388788),scale(1.000000,0.565381),translate(-0.911725,-1.388788)" id="radialGradient-8">
            <stop stop-color="#FFFFFF" offset="0%"></stop>
            <stop stop-color="#6AAFE4" offset="50%"></stop>
            <stop stop-color="#35368C" offset="100%"></stop>
        </radialGradient>
        <linearGradient x1="50.0115895%" y1="129.112905%" x2="50.0115895%" y2="32.9133465%" id="linearGradient-9">
            <stop stop-color="#D78113" offset="0%"></stop>
            <stop stop-color="#D78113" stop-opacity="0" offset="100%"></stop>
        </linearGradient>
        <linearGradient x1="49.9890663%" y1="-200.037717%" x2="49.9890663%" y2="104.303109%" id="linearGradient-10">
            <stop stop-color="#FFFFFF" offset="0%"></stop>
            <stop stop-color="#FFFFFF" stop-opacity="0" offset="100%"></stop>
        </linearGradient>
    </defs>
    <g id="Page-1" stroke="none" stroke-width="1" fill="none" fill-rule="evenodd">
        <g id="Desktop-Full-HD" transform="translate(-785.000000, -352.000000)">
            <g id="Logo2" transform="translate(785.000000, 352.000000)">
                <g id="Group-2" transform="translate(0.717538, 0.779221)">
                    <path d="M81.022722,24.969697 C72.6417696,18.7532468 61.7673107,16.7012987 53.4209904,23.4545455 C38.7023756,35.4025974 45.8885228,61.974026 77.8798648,72.8051948 C74.4814286,78.5112386 71.9432872,84.6873828 70.3473973,91.1341991 C28.035709,71.8268398 34.7716397,47.3679654 39.2738042,37.4545455 C31.3777003,50.6753247 30.9967479,64.1125541 39.2738042,77.7575758 C50.3041073,93.030303 65.1093021,101.298701 78.5465315,110.865801 C73.6893886,64.2943723 126.165579,38.9437229 134.217527,12.4242424 C117.11796,7.64502165 95.9144969,10.969697 80.9794319,25.012987 L81.022722,24.969697 Z M150.113631,20.0865801 C161.143934,48.2424242 139.360384,82.4242424 112.589822,91.1341991 C111.412332,76.7099567 118.382029,61.6190476 122.018393,47.3333333 C116.607138,64.6493506 85.9751029,83.7575758 105.369042,139.87013 C107.057354,115.878788 132.009735,99.2987013 147.369042,80.9264069 C170.217527,53.6363636 165.490254,31.9047619 150.113631,20.0865801 L150.113631,20.0865801 Z M89.048696,42.7186147 C85.3257523,66.1645022 57.9751029,59.5930736 72.1309471,36.5194805 C74.5956467,32.4798224 77.5856869,28.7852159 81.022722,25.5324675 C86.7283497,29.7662338 90.1222891,35.9220779 89.048696,42.7186147 L89.048696,42.7186147 Z" id="Shape" fill="url(#linearGradient-1)"></path>
                    <path d="M53.4209904,23.4805195 C33.6114666,33.004329 34.9188259,67.1688312 73.4469644,81.6796537 C74.7290261,78.6361711 76.209855,75.6802978 77.8798648,72.8311688 C45.8452328,62.017316 38.6937176,35.4458874 53.4209904,23.4805195 L53.4209904,23.4805195 Z" id="Path" fill="url(#linearGradient-2)"></path>
                    <path d="M134.485925,-7.10542736e-15 C157.732679,24.9264069 147.07467,59.991342 113.395016,78.1645022 C112.563445,82.4401287 112.292767,86.8059139 112.589822,91.1515152 C146.278133,80.2251082 172.070341,28.8138528 134.485925,0.0173160173 L134.485925,-7.10542736e-15 Z" id="Path" fill="url(#linearGradient-3)"></path>
                    <path d="M122.018393,47.3333333 C107.576835,66.4329004 83.8538908,80.0779221 89.6720726,119.515152 C96.2151309,125.180107 101.553116,132.102116 105.369042,139.87013 C85.9751029,83.7575758 116.624454,64.6753247 122.018393,47.3333333 L122.018393,47.3333333 Z" id="Path" fill="url(#linearGradient-4)"></path>
                    <path d="M105.369042,139.87013 C100.174237,115.056277 101.663415,92.4935065 114.356055,73.6623377 C116.451293,64.8051948 119.836575,55.9134199 122.018393,47.3333333 C116.607138,64.6493506 85.9751029,83.7575758 105.369042,139.87013 Z" id="Path" fill="url(#radialGradient-5)"></path>
                    <path d="M112.589822,91.1341991 C134.546531,87.991342 161.680731,66.5887446 161.836575,36.6753247 C159.799913,30.0361244 155.691892,24.2230015 150.113631,20.0865801 C161.143934,48.2424242 139.360384,82.4242424 112.589822,91.1341991 L112.589822,91.1341991 Z" id="Path" fill="url(#radialGradient-6)"></path>
                    <path d="M77.8798648,72.8311688 C44.9361419,54.4155844 46.5638475,20.8051948 69.4123324,19.7056277 C63.785219,18.4703549 57.9016679,19.859217 53.4209904,23.4805195 C38.7023756,35.4285714 45.8885228,62 77.8798648,72.8311688 L77.8798648,72.8311688 Z" id="Path" fill="url(#radialGradient-7)"></path>
                    <path d="M127.256488,10.9004329 C119.07467,37.3333333 70.9274839,65.7662338 78.5898215,110.822511 C73.7326787,64.2510823 126.208869,38.9004329 134.260817,12.3809524 C131.963388,11.7248499 129.622908,11.2301378 127.256488,10.9004329 L127.256488,10.9004329 Z" id="Path" fill="url(#radialGradient-8)"></path>
                    <path d="M85.8365748,51.5238095 C77.2564882,58.2077922 64.7976137,50.1818182 75.3170943,32.995671 C76.6706787,30.7988585 78.1750103,28.6985801 79.8192588,26.7099567 C76.8867583,29.6723549 74.3068358,32.9640803 72.1309471,36.5194805 C60.1828951,56 77.8365748,63.7142857 85.8365748,51.5238095 L85.8365748,51.5238095 Z" id="Path" fill="url(#linearGradient-9)"></path>
                    <path d="M84.3906873,25.2121212 C95.2939286,20.0324909 107.633378,18.7106251 119.386358,21.4632035 C121.171552,18.7702321 122.710251,15.9217551 123.983761,12.952381 C109.801943,11.7056277 95.2478302,15.8961039 84.3906873,25.2121212 Z" id="Path" fill="url(#linearGradient-10)"></path>
                    <polygon id="Path" fill="#251E1C" fill-rule="nonzero" points="53.2738042 187.748918 50.1569211 187.748918 50.1569211 196.406926 48.8841938 196.406926 48.8841938 187.748918 45.7846267 187.748918 45.7846267 186.701299 53.2738042 186.701299"></polygon>
                    <path d="M61.4209904,193.852814 L57.3690423,193.852814 L56.4512934,196.380952 L55.1352761,196.380952 L58.8322458,186.701299 L59.9491289,186.701299 L63.6634146,196.380952 L62.3560553,196.380952 L61.4209904,193.852814 Z M57.7499947,192.805195 L61.066012,192.805195 L59.4209904,188.277056 L57.7499947,192.805195 Z" id="Shape" fill="#251E1C" fill-rule="nonzero"></path>
                    <path d="M73.4642804,195.116883 C73.1253377,195.59698 72.6481622,195.962412 72.096315,196.164502 C71.4409684,196.411648 70.7446532,196.532108 70.044367,196.519481 C69.3057212,196.529588 68.5783112,196.338006 67.9404709,195.965368 C67.3250457,195.584291 66.8321623,195.034305 66.5205575,194.380952 C66.1768206,193.637735 66.00235,192.827482 66.009735,192.008658 L66.009735,191.142857 C65.9311961,189.925512 66.2938923,188.720623 67.03138,187.748918 C67.7501348,186.927552 68.8074951,186.483524 69.8971808,186.545455 C70.7768349,186.503306 71.6426426,186.776557 72.3387393,187.316017 C72.9789285,187.880034 73.381196,188.666003 73.4642804,189.515152 L72.1915531,189.515152 C72.090705,188.353427 71.0676414,187.493123 69.9058389,187.593074 C69.1523308,187.536425 68.4206663,187.861609 67.9577869,188.458874 C67.4662474,189.232289 67.2328223,190.141738 67.2911202,191.056277 L67.2911202,191.852814 C67.2424007,192.777459 67.5045155,193.691813 68.035709,194.450216 C68.510657,195.081022 69.2639292,195.439877 70.053025,195.411255 C70.4767017,195.417852 70.8992322,195.3654 71.3084363,195.255411 C71.639541,195.156442 71.9383588,194.971175 72.1742371,194.718615 L72.1742371,192.545455 L69.9318129,192.545455 L69.9318129,191.506494 L73.4383064,191.506494 L73.4642804,195.116883 Z" id="Path" fill="#251E1C" fill-rule="nonzero"></path>
                    <polygon id="Path" fill="#251E1C" fill-rule="nonzero" points="78.2435012 195.341991 82.8235878 195.341991 82.8235878 196.380952 76.9534579 196.380952 76.9534579 186.701299 78.2435012 186.701299"></polygon>
                    <polygon id="Path" fill="#251E1C" fill-rule="nonzero" points="87.040038 196.380952 85.7413367 196.380952 85.7413367 186.701299 87.040038 186.701299"></polygon>
                    <polygon id="Path" fill="#251E1C" fill-rule="nonzero" points="98.1482631 196.380952 96.8668778 196.380952 91.9924189 188.926407 91.9924189 196.380952 90.7110337 196.380952 90.7110337 186.701299 91.9924189 186.701299 96.8755358 194.199134 96.8755358 186.701299 98.1482631 186.701299"></polygon>
                    <polygon id="Path" fill="#251E1C" fill-rule="nonzero" points="107.24783 191.91342 103.057354 191.91342 103.057354 195.376623 107.931813 195.376623 107.931813 196.415584 101.758653 196.415584 101.758653 186.701299 107.819259 186.701299 107.819259 187.748918 103.057354 187.748918 103.057354 190.865801 107.24783 190.865801"></polygon>
                    <polygon id="Path" fill="#251E1C" fill-rule="nonzero" points="123.048696 196.380952 121.767311 196.380952 121.767311 191.91342 116.884194 191.91342 116.884194 196.380952 115.611467 196.380952 115.611467 186.701299 116.884194 186.701299 116.884194 190.865801 121.767311 190.865801 121.767311 186.701299 123.048696 186.701299"></polygon>
                    <polygon id="Path" fill="#251E1C" fill-rule="nonzero" points="132.148263 191.91342 127.957787 191.91342 127.957787 195.376623 132.832246 195.376623 132.832246 196.415584 126.676402 196.415584 126.676402 186.701299 132.737008 186.701299 132.737008 187.748918 127.931813 187.748918 127.931813 190.865801 132.122289 190.865801"></polygon>
                    <path d="M139.33441,192.467532 L137.057354,192.467532 L137.057354,196.380952 L135.775969,196.380952 L135.775969,186.701299 L138.98809,186.701299 C139.889554,186.643652 140.782261,186.907476 141.50757,187.445887 C142.110061,188.001999 142.428382,188.800984 142.373371,189.619048 C142.382855,190.182413 142.213069,190.734218 141.888523,191.194805 C141.54086,191.652757 141.069087,192.001327 140.529215,192.199134 L142.797614,196.30303 L142.797614,196.380952 L141.429648,196.380952 L139.33441,192.467532 Z M137.057354,191.428571 L138.98809,191.428571 C139.537076,191.459268 140.077646,191.283197 140.503241,190.935065 C140.880094,190.600317 141.086689,190.114022 141.066012,189.61039 C141.101666,189.094373 140.904773,188.589436 140.529215,188.233766 C140.093992,187.885532 139.544298,187.712594 138.98809,187.748918 L137.03138,187.748918 L137.057354,191.428571 Z" id="Shape" fill="#251E1C" fill-rule="nonzero"></path>
                    <polygon id="Path" fill="#251E1C" fill-rule="nonzero" points="150.996748 191.91342 146.780298 191.91342 146.780298 195.376623 151.646099 195.376623 151.646099 196.415584 145.498912 196.415584 145.498912 186.701299 151.559519 186.701299 151.559519 187.748918 146.780298 187.748918 146.780298 190.865801 150.970774 190.865801"></polygon>
                    <path d="M20.1136311,171.082251 C19.194411,172.3786 17.9061772,173.368157 16.4166614,173.922078 C14.6490982,174.58487 12.7715265,174.905144 10.8841938,174.865801 C8.89169572,174.90077 6.92856182,174.382263 5.21319816,173.367965 C3.54798867,172.353412 2.21733525,170.872232 1.38635833,169.108225 C0.447864696,167.107272 -0.0257196505,164.919904 0.00107694852,162.709957 L0.00107694852,160.4329 C0.00107694852,156.502165 0.918825866,153.445887 2.7543237,151.290043 C4.58982154,149.134199 7.16125011,148.04329 10.4859254,148.04329 C12.8586359,147.926489 15.1941901,148.667106 17.066012,150.12987 C18.7930763,151.64837 19.8818052,153.763968 20.1136311,156.051948 L16.6504276,156.051948 C16.003963,152.588745 13.9462429,150.857143 10.4772674,150.857143 C8.44720144,150.745428 6.49636874,151.659068 5.28246223,153.290043 C4.08765704,154.909091 3.49025444,157.255411 3.47293842,160.329004 L3.47293842,162.467532 C3.34320412,164.955526 4.05035329,167.415308 5.48159643,169.454545 C6.76019473,171.157409 8.79071285,172.127402 10.9188259,172.051948 C12.0621145,172.069669 13.2020677,171.923895 14.3041073,171.619048 C15.2225272,171.363894 16.0544313,170.864153 16.7110337,170.17316 L16.7110337,164.320346 L10.6504276,164.320346 L10.6504276,161.506494 L20.1136311,161.506494 L20.1136311,171.082251 Z" id="Path" fill="#251E1C" fill-rule="nonzero"></path>
                    <path d="M34.7110337,158.077922 C34.1723688,157.995903 33.6281997,157.95538 33.083328,157.95671 C31.1532833,157.799251 29.3495758,158.930091 28.6504276,160.735931 L28.6504276,174.502165 L25.3344103,174.502165 L25.3344103,155.082251 L28.5638475,155.082251 L28.6157956,157.324675 C29.5656573,155.678222 31.3389098,154.682013 33.2391722,154.727273 C33.742213,154.70295 34.2445059,154.788635 34.7110337,154.978355 L34.7110337,158.077922 Z" id="Path" fill="#251E1C" fill-rule="nonzero"></path>
                    <path d="M45.8106008,174.865801 C43.3999006,174.952355 41.0665173,174.007666 39.3950163,172.268398 C37.6845787,170.37883 36.7939889,167.88767 36.9188259,165.341991 L36.9188259,164.735931 C36.8804011,162.942757 37.2567052,161.164942 38.018393,159.541126 C38.6987491,158.096235 39.7654943,156.86768 41.100644,155.991342 C42.3855835,155.146388 43.8918163,154.700543 45.4296484,154.709957 C47.6718403,154.587651 49.8447967,155.507962 51.3170943,157.203463 C52.7139197,158.865801 53.4123324,161.243867 53.4123324,164.337662 L53.4123324,165.722944 L40.2348432,165.722944 C40.2006819,167.421866 40.7993444,169.072817 41.9144969,170.354978 C42.9522054,171.504923 44.4443517,172.13853 45.9924189,172.08658 C47.02942,172.123243 48.0566032,171.874682 48.9621159,171.367965 C49.7895588,170.878373 50.5154967,170.234728 51.100644,169.471861 L53.1266181,171.047619 C51.561872,173.554054 48.7615727,175.015512 45.8106008,174.865801 Z M45.3950163,157.471861 C44.1131771,157.447521 42.8840473,157.981513 42.027051,158.935065 C41.041406,160.084832 40.4497572,161.51996 40.3387393,163.030303 L50.0616847,163.030303 L50.0616847,162.779221 C50.0627346,161.357353 49.5803518,159.977372 48.6937176,158.865801 C47.8610129,157.926934 46.6486481,157.414622 45.3950163,157.471861 L45.3950163,157.471861 Z" id="Shape" fill="#251E1C" fill-rule="nonzero"></path>
                    <path d="M65.2651462,174.865801 C62.854446,174.952355 60.5210627,174.007666 58.8495618,172.268398 C57.1391242,170.37883 56.2485343,167.88767 56.3733713,165.341991 L56.3733713,164.735931 C56.3349466,162.942757 56.7112507,161.164942 57.4729384,159.541126 C58.1532945,158.096235 59.2200398,156.86768 60.5551895,155.991342 C61.8401289,155.146388 63.3463617,154.700543 64.8841938,154.709957 C67.1263857,154.587651 69.2993422,155.507962 70.7716397,157.203463 C72.1626931,158.865801 72.8611058,161.243867 72.8668778,164.337662 L72.8668778,165.722944 L59.6893886,165.722944 C59.6552274,167.421866 60.2538899,169.072817 61.3690423,170.354978 C62.4067509,171.504923 63.8988971,172.13853 65.4469644,172.08658 C66.4839654,172.123243 67.5111487,171.874682 68.4166614,171.367965 C69.2504144,170.902444 69.9879283,170.282462 70.5898215,169.541126 L72.6157956,171.116883 C71.0263579,173.606654 68.2137977,175.041093 65.2651462,174.865801 L65.2651462,174.865801 Z M64.8495618,157.471861 C63.5677225,157.447521 62.3385928,157.981513 61.4815964,158.935065 C60.4802754,160.079198 59.8732207,161.514882 59.7499947,163.030303 L69.4729401,163.030303 L69.4729401,162.779221 C69.47399,161.357353 68.9916072,159.977372 68.1049731,158.865801 C67.2820075,157.938934 66.0882754,157.427788 64.8495618,157.471861 L64.8495618,157.471861 Z" id="Shape" fill="#251E1C" fill-rule="nonzero"></path>
                    <path d="M79.8106008,155.082251 L79.9144969,157.515152 C81.2888748,155.703295 83.4505619,154.662721 85.7240207,154.718615 C89.8163728,154.718615 91.8856368,157.027417 91.9318129,161.645022 L91.9318129,174.458874 L88.6071376,174.458874 L88.6071376,161.670996 C88.6887147,160.552371 88.3490037,159.443678 87.6547566,158.562771 C86.8592423,157.833381 85.7952884,157.469314 84.7196917,157.558442 C83.7078627,157.538286 82.7160112,157.841604 81.8885228,158.424242 C81.0707461,159.002143 80.4149168,159.780195 79.9837609,160.683983 L79.9837609,174.536797 L76.6504276,174.536797 L76.6504276,155.082251 L79.8106008,155.082251 Z" id="Path" fill="#251E1C" fill-rule="nonzero"></path>
                    <polygon id="Path" fill="#251E1C" fill-rule="nonzero" points="117.516228 174.502165 114.053025 174.502165 114.053025 162.441558 100.892852 162.441558 100.892852 174.502165 97.4296484 174.502165 97.4296484 148.398268 100.892852 148.398268 100.892852 159.65368 114.053025 159.65368 114.053025 148.398268 117.516228 148.398268"></polygon>
                    <path d="M131.195882,174.865801 C128.782791,174.951522 126.447069,174.007161 124.77164,172.268398 C123.067647,170.375492 122.18073,167.885899 122.304107,165.341991 L122.304107,164.735931 C122.265683,162.942757 122.641987,161.164942 123.403674,159.541126 C124.08403,158.096235 125.150776,156.86768 126.485925,155.991342 C127.770865,155.146388 129.277098,154.700543 130.81493,154.709957 C133.054612,154.587726 135.224905,155.508263 136.693718,157.203463 C138.096315,158.865801 138.797614,161.243867 138.797614,164.337662 L138.797614,165.722944 L125.585493,165.722944 C125.556314,167.419511 126.150919,169.067768 127.256488,170.354978 C128.296298,171.501971 129.787008,172.134969 131.33441,172.08658 C132.374145,172.123061 133.404064,171.874563 134.312765,171.367965 C135.140208,170.878373 135.866146,170.234728 136.451293,169.471861 L138.477267,171.047619 C136.917386,173.541493 134.134316,175.000867 131.195882,174.865801 L131.195882,174.865801 Z M130.780298,157.471861 C129.498001,157.445202 128.267946,157.979596 127.412332,158.935065 C126.426687,160.084832 125.835039,161.51996 125.724021,163.030303 L135.446964,163.030303 L135.446964,162.779221 C135.443925,161.358049 134.961999,159.979376 134.078999,158.865801 C133.237045,157.919316 132.010754,157.406503 130.745666,157.471861 L130.780298,157.471861 Z" id="Shape" fill="#251E1C" fill-rule="nonzero"></path>
                    <path d="M154.572506,174.502165 C154.313909,173.848729 154.15626,173.159745 154.104973,172.458874 C152.688949,174.00906 150.680655,174.884147 148.581164,174.865801 C146.865302,174.932606 145.187085,174.351566 143.879865,173.238095 C142.674727,172.217504 141.999282,170.704127 142.044367,169.125541 C141.962347,167.268711 142.829984,165.497557 144.347397,164.424242 C145.879865,163.298701 148.044367,162.744589 150.823588,162.744589 L154.053025,162.744589 L154.053025,161.220779 C154.104341,160.193382 153.728276,159.190541 153.014064,158.450216 C152.171398,157.710576 151.067469,157.339481 149.949129,157.419913 C148.888324,157.374613 147.841977,157.678784 146.970774,158.285714 C146.234972,158.766554 145.784465,159.580059 145.767311,160.458874 L142.433977,160.458874 C142.454781,159.435041 142.817457,158.447586 143.46428,157.65368 C144.201609,156.71472 145.163298,155.976333 146.260817,155.506494 C147.486976,154.973946 148.811513,154.705588 150.148263,154.718615 C152.045039,154.607844 153.91521,155.206545 155.395016,156.398268 C156.688997,157.578952 157.408845,159.261754 157.369042,161.012987 L157.369042,169.939394 C157.313966,171.387692 157.546437,172.832548 158.053025,174.190476 L158.053025,174.47619 L154.572506,174.502165 Z M149.066012,171.974026 C150.107183,171.974588 151.129543,171.696578 152.027051,171.168831 C152.900936,170.694278 153.608106,169.962932 154.053025,169.073593 L154.053025,165.090909 L151.455622,165.090909 C147.386358,165.090909 145.395016,166.285714 145.395016,168.658009 C145.347675,169.588288 145.730809,170.488653 146.433977,171.099567 C147.168698,171.689823 148.089279,171.999752 149.03138,171.974026 L149.066012,171.974026 Z" id="Shape" fill="#251E1C" fill-rule="nonzero"></path>
                    <polygon id="Path" fill="#251E1C" fill-rule="nonzero" points="166.139605 174.502165 162.823588 174.502165 162.823588 146.961039 166.139605 146.961039"></polygon>
                    <path d="M175.949129,150.406926 L175.949129,155.082251 L179.568177,155.082251 L179.568177,157.679654 L175.949129,157.679654 L175.949129,169.714286 C175.908249,170.329919 176.079351,170.940996 176.433977,171.445887 C176.865856,171.879569 177.470018,172.095795 178.078999,172.034632 C178.609954,172.012915 179.137612,171.940434 179.654757,171.818182 L179.654757,174.493506 C178.828471,174.72299 177.975499,174.842348 177.11796,174.848485 C175.849998,174.939274 174.610874,174.441069 173.758653,173.497835 C172.941448,172.399407 172.542403,171.045721 172.633112,169.679654 L172.633112,157.679654 L169.100644,157.679654 L169.100644,155.082251 L172.633112,155.082251 L172.633112,150.406926 L175.949129,150.406926 Z" id="Path" fill="#251E1C" fill-rule="nonzero"></path>
                    <path d="M186.762982,157.454545 C188.134641,155.692138 190.262067,154.68627 192.494583,154.744589 C196.59848,154.744589 198.667744,157.053391 198.702376,161.670996 L198.702376,174.484848 L195.386358,174.484848 L195.386358,161.670996 C195.45835,160.542553 195.106354,159.427897 194.399345,158.545455 C193.604384,157.815135 192.54001,157.450925 191.46428,157.541126 C190.452451,157.52097 189.4606,157.824288 188.633112,158.406926 C187.815567,158.982736 187.162084,159.761544 186.737008,160.666667 L186.737008,174.519481 L183.42099,174.519481 L183.42099,146.961039 L186.737008,146.961039 L186.762982,157.454545 Z" id="Path" fill="#251E1C" fill-rule="nonzero"></path>
                </g>
            </g>
        </g>
    </g>
</svg>